<svg xmlns="http://www.w3.org/2000/svg" xmlns:xlink="http://www.w3.org/1999/xlink" width="48" height="48" viewBox="0 0 48 48">
  <defs>
    <clipPath id="clip-path">
      <rect id="Rectangle_1546" data-name="Rectangle 1546" width="24" height="18.592" fill="#fff"/>
    </clipPath>
  </defs>
  <g id="discord" transform="translate(-70 -837)">
    <rect id="Rectangle_23" data-name="Rectangle 23" width="48" height="48" rx="5" transform="translate(70 837)" fill="#fff" opacity="0"/>
    <g id="discord-black-icon" transform="translate(82 852)" clip-path="url(#clip-path)">
      <path id="Path_1080" data-name="Path 1080" d="M20.317,1.928A19.791,19.791,0,0,0,15.432.413a.074.074,0,0,0-.079.037A13.787,13.787,0,0,0,14.745,1.7a18.271,18.271,0,0,0-5.487,0A12.644,12.644,0,0,0,8.641.45.077.077,0,0,0,8.562.413,19.736,19.736,0,0,0,3.677,1.928a.07.07,0,0,0-.032.028A20.255,20.255,0,0,0,.1,15.616a.082.082,0,0,0,.031.056A19.9,19.9,0,0,0,6.123,18.7a.078.078,0,0,0,.084-.028A14.225,14.225,0,0,0,7.433,16.68a.076.076,0,0,0-.042-.106,13.106,13.106,0,0,1-1.872-.892.077.077,0,0,1-.008-.128c.126-.094.252-.192.372-.291a.074.074,0,0,1,.078-.01,14.193,14.193,0,0,0,12.061,0,.074.074,0,0,1,.079.01c.12.1.246.2.373.292a.077.077,0,0,1-.007.128,12.3,12.3,0,0,1-1.873.891.077.077,0,0,0-.041.107,15.972,15.972,0,0,0,1.225,1.993.076.076,0,0,0,.084.029,19.836,19.836,0,0,0,6-3.029.077.077,0,0,0,.031-.055,20.122,20.122,0,0,0-3.548-13.66A.061.061,0,0,0,20.317,1.928ZM8.02,12.89a2.307,2.307,0,0,1-2.157-2.419A2.294,2.294,0,0,1,8.02,8.052a2.281,2.281,0,0,1,2.157,2.419A2.294,2.294,0,0,1,8.02,12.89Zm7.975,0a2.307,2.307,0,0,1-2.157-2.419,2.294,2.294,0,0,1,2.157-2.419,2.281,2.281,0,0,1,2.157,2.419A2.288,2.288,0,0,1,15.995,12.89Z" transform="translate(0 -0.273)" fill="#fff"/>
    </g>
  </g>
</svg>
