<svg id="instagram" xmlns="http://www.w3.org/2000/svg" width="48" height="48" viewBox="0 0 48 48">
  <rect id="Rectangle_1827" data-name="Rectangle 1827" width="48" height="48" rx="5" fill="#fff" opacity="0"/>
  <g id="instagram-black-icon" transform="translate(12 12)">
    <path id="Path_254" data-name="Path 254" d="M21.5,6.5a5.015,5.015,0,0,1,5,5v10a5.015,5.015,0,0,1-5,5h-10a5.015,5.015,0,0,1-5-5v-10a5.015,5.015,0,0,1,5-5h10m0-2h-10a7.021,7.021,0,0,0-7,7v10a7.021,7.021,0,0,0,7,7h10a7.021,7.021,0,0,0,7-7v-10a7.021,7.021,0,0,0-7-7Z" transform="translate(-4.5 -4.5)" fill="#fff"/>
    <path id="Path_255" data-name="Path 255" d="M25.125,12a1.5,1.5,0,1,1,1.5-1.5A1.5,1.5,0,0,1,25.125,12Z" transform="translate(-6.625 -5)" fill="#fff"/>
    <path id="Path_256" data-name="Path 256" d="M17.25,13.25a4,4,0,1,1-4,4,4,4,0,0,1,4-4m0-2a6,6,0,1,0,6,6,6,6,0,0,0-6-6Z" transform="translate(-5.25 -5.25)" fill="#fff"/>
  </g>
</svg>
