<svg xmlns="http://www.w3.org/2000/svg" width="48" height="48" viewBox="0 0 48 48">
  <g id="telegram" transform="translate(-70 -963)">
    <rect id="Rectangle_23" data-name="Rectangle 23" width="48" height="48" rx="5" transform="translate(70 963)" fill="#fff" opacity="0"/>
    <path id="telegram-black-icon" d="M23.933,6.36l-3.622,17.08c-.273,1.205-.986,1.505-2,.938l-5.518-4.066-2.663,2.561a1.386,1.386,0,0,1-1.109.541l.4-5.62L19.647,8.552c.445-.4-.1-.616-.691-.22L6.312,16.293.868,14.59c-1.184-.37-1.205-1.184.246-1.752l21.291-8.2C23.392,4.266,24.254,4.855,23.933,6.36Z" transform="translate(81.999 972.472)" fill="#fff"/>
  </g>
</svg>
